<?xml version="1.0" encoding="iso-8859-1"?>
<!-- Generator: Adobe Illustrator 19.0.0, SVG Export Plug-In . SVG Version: 6.00 Build 0)  -->
<svg version="1.1" id="Capa_1" xmlns="http://www.w3.org/2000/svg" xmlns:xlink="http://www.w3.org/1999/xlink" x="0px" y="0px"
	 viewBox="0 0 512 512" style="enable-background:new 0 0 512 512;" xml:space="preserve">
<g>
	<path style="fill:#FFFFFF;" d="M213.333,38.4H25.762c-4.569,0-8.952,1.815-12.183,5.046c-3.231,3.231-5.046,7.613-5.046,12.183
		v127.838H230.4l0.162-76.8V55.629c0-4.569-1.815-8.952-5.046-12.183C222.285,40.215,217.903,38.4,213.333,38.4z"/>
	<path style="fill:#7FACFA;" d="M230.562,106.667V55.629c0-9.515-7.714-17.229-17.229-17.229h-93.867
		c-9.515,0-17.229,7.714-17.229,17.229v127.838h401.229v-59.571c0-9.515-7.714-17.229-17.229-17.229H230.562z"/>
	<g>
		<path style="fill:#A4C2F7;" d="M230.562,106.667V55.629c0-9.515-7.714-17.229-17.229-17.229H51.362
			c-9.515,0-17.229,7.714-17.229,17.229v127.838h443.733v-59.571c0-9.515-7.714-17.229-17.229-17.229H230.562z"/>
		<path style="fill:#A4C2F7;" d="M281.438,183.467h222.029v272.905c0,9.515-7.714,17.229-17.229,17.229H298.667
			c-9.515,0-17.229-7.714-17.229-17.229V183.467z"/>
	</g>
	<path style="fill:#FFFFFF;" d="M8.533,183.467h222.029v272.905c0,9.515-7.714,17.229-17.229,17.229H25.762
		c-9.515,0-17.229-7.714-17.229-17.229V183.467z"/>
	<path style="fill:#E3E7F2;" d="M34.133,183.467h443.733v272.905c0,9.515-7.714,17.229-17.229,17.229H51.362
		c-9.515,0-17.229-7.714-17.229-17.229V183.467z"/>
	<g>
		<path style="fill:#428DFF;" d="M486.233,482.133H25.767C11.543,482.118,0.016,470.591,0,456.367v-272.9
			c-0.001-2.264,0.897-4.435,2.498-6.035s3.772-2.499,6.035-2.498h494.933c2.264-0.001,4.435,0.897,6.035,2.498
			c1.601,1.601,2.499,3.772,2.498,6.035v272.9C511.984,470.591,500.457,482.118,486.233,482.133L486.233,482.133z M17.067,192
			v264.367c0.003,4.803,3.897,8.697,8.7,8.7h460.467c4.803-0.003,8.697-3.897,8.7-8.7V192H17.067z"/>
		<path style="fill:#428DFF;" d="M503.467,192H8.533c-2.264,0.001-4.435-0.897-6.035-2.498S-0.001,185.73,0,183.467V55.633
			c0.016-14.224,11.543-25.751,25.767-25.767h187.567c14.224,0.016,25.751,11.543,25.767,25.767v42.5h247.133
			c14.224,0.016,25.751,11.543,25.767,25.767v59.567c0.001,2.264-0.897,4.435-2.498,6.035
			C507.901,191.103,505.73,192.001,503.467,192L503.467,192z M17.067,174.933h477.867V123.9c-0.003-4.803-3.897-8.697-8.7-8.7
			H230.567c-2.264,0.001-4.435-0.897-6.035-2.498c-1.601-1.601-2.499-3.772-2.498-6.035V55.633c-0.003-4.803-3.897-8.697-8.7-8.7
			H25.767c-4.803,0.003-8.697,3.897-8.7,8.7V174.933z"/>
	</g>
</g>
<g>
</g>
<g>
</g>
<g>
</g>
<g>
</g>
<g>
</g>
<g>
</g>
<g>
</g>
<g>
</g>
<g>
</g>
<g>
</g>
<g>
</g>
<g>
</g>
<g>
</g>
<g>
</g>
<g>
</g>
</svg>
