<?xml version="1.0" encoding="iso-8859-1"?>
<!-- Generator: Adobe Illustrator 19.0.0, SVG Export Plug-In . SVG Version: 6.00 Build 0)  -->
<svg version="1.1" id="Capa_1" xmlns="http://www.w3.org/2000/svg" xmlns:xlink="http://www.w3.org/1999/xlink" x="0px" y="0px"
	 viewBox="0 0 512 512" style="enable-background:new 0 0 512 512;" xml:space="preserve">
<g>
	<path style="fill:#A4C2F7;" d="M403.833,456.533H21.89c-4.155,0-8.074-1.935-10.6-5.234c-2.526-3.299-3.372-7.587-2.287-11.598
		l86.746-237.834c1.574-5.822,6.856-9.867,12.887-9.867h381.943c8.79,0,12.887,8.4,12.887,16.833L416.72,446.667
		C415.147,452.489,409.865,456.533,403.833,456.533L403.833,456.533z"/>
	<path style="fill:#E3E7F2;" d="M378.233,456.533H21.89c-4.155,0-8.074-1.935-10.6-5.234c-2.526-3.299-3.372-7.587-2.287-11.598
		l86.746-237.834c1.574-5.822,6.856-9.867,12.887-9.867h356.343c8.79,0,12.887,8.4,12.887,16.833L391.12,446.667
		C389.547,452.489,384.265,456.533,378.233,456.533L378.233,456.533z"/>
	<path style="fill:#7FACFA;" d="M437.483,115.2H221.867L179.2,55.466H23.317c-3.921,0-7.681,1.557-10.454,4.33
		s-4.33,6.533-4.33,10.454v364.609c0.591,0.021,1.175,0.05,1.753,0.087l85.463-233.079c1.573-5.823,6.856-9.868,12.887-9.867h343.63
		v-62.017c0-3.921-1.557-7.681-4.33-10.454S441.404,115.199,437.483,115.2z"/>
	<path style="fill:#A4C2F7;" d="M411.883,115.2H221.867L179.2,55.466H23.317c-3.921,0-7.681,1.557-10.454,4.33
		s-4.33,6.533-4.33,10.454v364.609c0.591,0.021,1.175,0.05,1.753,0.087l85.463-233.079c1.573-5.823,6.856-9.868,12.887-9.867h318.03
		v-62.017c0-3.921-1.557-7.681-4.33-10.454S415.804,115.199,411.883,115.2z"/>
	<path style="fill:#FFFFFF;" d="M34.133,55.466H31.15c-3.921,0-7.681,1.557-10.454,4.329s-4.33,6.533-4.33,10.454v364.609
		c0.591,0.021,1.176,0.05,1.753,0.087l16.013-46.679V55.466z"/>
	<g>
		<path style="fill:#428DFF;" d="M403.833,465.066H21.892c-6.813,0-13.238-3.173-17.379-8.583
			c-4.141-5.41-5.526-12.441-3.746-19.017l86.967-238.525c2.752-9.233,11.271-15.538,20.905-15.475h381.941
			c12.413,0,21.421,10.667,21.421,25.367c0,0.998-0.175,1.988-0.517,2.925l-86.746,237.833
			C421.985,458.824,413.467,465.13,403.833,465.066z M108.638,200.533c-2.174,0.004-4.078,1.461-4.65,3.558L17.021,442.625
			c-0.147,1.256,0.232,2.516,1.046,3.483c0.901,1.204,2.321,1.906,3.825,1.892h381.942c2.174-0.004,4.078-1.461,4.65-3.558
			l86.379-236.917c-0.212-2.333-1.042-6.992-4.283-6.992H108.638z"/>
		<path style="fill:#428DFF;" d="M10.292,443.483c-0.204,0-0.408-0.009-0.617-0.025l-1.5-0.075c-4.57-0.191-8.176-3.951-8.175-8.525
			V70.25c0.014-12.872,10.445-23.303,23.317-23.317H179.2c2.756,0.002,5.343,1.333,6.946,3.575l40.112,56.158h211.225
			c12.872,0.014,23.303,10.445,23.317,23.317V192c0.001,2.263-0.898,4.434-2.499,6.035c-1.6,1.6-3.771,2.499-6.035,2.499H108.638
			c-2.174,0.004-4.078,1.461-4.65,3.558L18.3,437.891C17.065,441.249,13.869,443.48,10.292,443.483z M23.317,64
			c-3.451,0.003-6.247,2.799-6.25,6.25v321.425l70.671-192.75c2.757-9.225,11.272-15.523,20.9-15.458h335.095v-53.483
			c-0.003-3.451-2.799-6.247-6.25-6.25H221.867c-2.757-0.002-5.343-1.333-6.946-3.575L174.808,64H23.317z"/>
	</g>
</g>
<g>
</g>
<g>
</g>
<g>
</g>
<g>
</g>
<g>
</g>
<g>
</g>
<g>
</g>
<g>
</g>
<g>
</g>
<g>
</g>
<g>
</g>
<g>
</g>
<g>
</g>
<g>
</g>
<g>
</g>
</svg>
